<?xml version="1.0" encoding="utf-8"?>
<!-- Generator: Adobe Illustrator 21.0.2, SVG Export Plug-In . SVG Version: 6.00 Build 0)  -->
<svg version="1.1" id="Layer_1" xmlns="http://www.w3.org/2000/svg" xmlns:xlink="http://www.w3.org/1999/xlink" x="0px" y="0px"
	 viewBox="0 0 252 144" style="enable-background:new 0 0 252 144;" xml:space="preserve">
<style type="text/css">
	.st0{fill:#FFFFFF;}
	.st1{opacity:0.4;fill:url(#SVGID_1_);enable-background:new    ;}
	.st2{opacity:0.4;fill:url(#SVGID_2_);enable-background:new    ;}
	.st3{opacity:0.4;fill:url(#SVGID_3_);enable-background:new    ;}
	.st4{enable-background:new    ;}
</style>
<g>
	<g>
		<path class="st0" d="M66.3,68.4c3.2,1.8,5.6,4.2,7.4,7.4c1.8,3.2,2.6,6.8,2.6,10.8c0,4-0.9,7.6-2.7,10.8c-1.8,3.2-4.3,5.6-7.5,7.4
			c-3.2,1.8-6.9,2.6-11,2.6H38.6V65.8h16.8C59.5,65.8,63.1,66.7,66.3,68.4z M61.6,97.9c1.8-1.1,3.1-2.6,4.1-4.6
			c1-1.9,1.5-4.2,1.5-6.7s-0.5-4.7-1.6-6.7c-1-2-2.5-3.5-4.3-4.6c-1.8-1.1-3.8-1.6-6.1-1.6h-7.7v25.8h8.1
			C57.9,99.5,59.9,99,61.6,97.9z"/>
		<path class="st0" d="M99.7,107.5v-3.7c-1,1.3-2.3,2.4-4,3.1c-1.6,0.7-3.5,1.1-5.6,1.1c-3.2,0-5.8-0.9-7.7-2.8
			c-1.9-1.8-2.8-4.3-2.8-7.2c0-3,1-5.4,3-7.1c2-1.7,4.9-2.5,8.6-2.6h8.4v-0.6c0-1.7-0.5-3-1.6-4c-1.1-0.9-2.7-1.4-4.7-1.4
			c-2.8,0-5.9,0.9-9.1,2.8l-2.7-6.3c2.4-1.3,4.7-2.2,6.8-2.8c2.1-0.6,4.4-0.9,7-0.9c4.1,0,7.2,1,9.5,3c2.2,2,3.4,4.8,3.4,8.5
			l0.1,20.9H99.7z M97.3,100c1.3-0.9,2.1-2.1,2.4-3.5v-2.9h-6.9c-1.7,0-3,0.3-3.8,0.9c-0.8,0.6-1.2,1.5-1.2,2.8
			c0,1.2,0.4,2.2,1.3,2.9c0.9,0.7,2,1.1,3.5,1.1C94.4,101.3,96,100.9,97.3,100z"/>
		<path class="st0" d="M123.6,62.6c0.9,1,1.3,2.2,1.3,3.7c0,1.5-0.4,2.7-1.3,3.7c-0.9,1-2,1.4-3.4,1.4c-1.4,0-2.5-0.5-3.4-1.5
			c-0.9-1-1.3-2.2-1.3-3.7c0-1.5,0.4-2.7,1.3-3.7c0.9-1,2-1.4,3.4-1.4C121.5,61.2,122.7,61.7,123.6,62.6z M115.8,75.4h8.7v32h-8.7
			V75.4z"/>
		<path class="st0" d="M133.2,63.3h8.7v44.2h-8.7V63.3z"/>
		<path class="st0" d="M154.3,119.4c-1.6,0-3.1-0.2-4.4-0.7c-1.3-0.5-2.6-1.3-3.9-2.4l3.7-6.6c1.3,1.2,2.6,1.7,4,1.7
			c1.9,0,3.2-1,4-2.9l0.9-1.8l-12.6-31.4h9l8,22l7.2-22h8.7L165.5,111C163.3,116.6,159.6,119.4,154.3,119.4z"/>
		<path class="st0" d="M182.8,65.8h28.5l-0.1,7.8h-19.5v10.2h17.9v7.9h-17.9v15.8h-9V65.8z"/>
		<path class="st0" d="M224.1,62.6c0.9,1,1.3,2.2,1.3,3.7c0,1.5-0.4,2.7-1.3,3.7c-0.9,1-2,1.4-3.4,1.4c-1.4,0-2.5-0.5-3.4-1.5
			c-0.9-1-1.3-2.2-1.3-3.7c0-1.5,0.4-2.7,1.3-3.7c0.9-1,2-1.4,3.4-1.4C222.1,61.2,223.2,61.7,224.1,62.6z M216.3,75.4h8.7v32h-8.7
			V75.4z"/>
		<path class="st0" d="M252.3,105.7c-1.1,0.7-2.4,1.3-3.8,1.6c-1.4,0.4-2.8,0.6-4.2,0.6c-2.8,0-5.1-0.9-6.9-2.6
			c-1.8-1.7-2.7-4.1-2.7-7.3V83.2h-4.3v-6.3h4.3v-8.8h8.7v8.8h8.3v6.4h-8.3v13.2c0,2.5,0.9,3.7,2.8,3.7c1.3,0,2.7-0.4,4.3-1.2
			L252.3,105.7z"/>
	</g>
	<path class="st0" d="M40.8,59.3c0,0-25.1,8.7-16.9,37.3c0,0-0.3,1.7,9.2,10.6C33.2,107.2,13.6,75.8,40.8,59.3z"/>
	<path class="st0" d="M52.8,39.3c-0.2-0.7-3.5-5.9-11.3-6.5c-6.2-0.4-10.4,4.5-10.7,7.8c-0.3,2.6,1.6,6.8,1,9.7c0,0-0.1,0.4-0.3,0.9
		c0,0,0,0.1-0.1,0.1c0,0,0,0.1-0.1,0.1c0,0.1-0.1,0.1-0.1,0.2c-0.1,0.1-0.1,0.1-0.2,0.2l0,0c-0.7,0.8-1.9,1.7-4.4,1.7
		c0,0,2.4-0.4,3.5-1.9c-0.8-1-2.5-2.9-5.1-4h-0.1c-0.2-0.1-0.4-0.1-0.6-0.2c-0.1,0-0.3-0.1-0.5-0.1c-0.1,0-0.3-0.1-0.4-0.1
		s-0.3-0.1-0.4-0.1c-1.2-0.2-2.6-0.3-4-0.2l0,0c-1.7,0.3-3.6,1.1-5.3,3c0,0,1.1-2.7,4.7-3.5c-1.2-1.1-4.1-3.5-6.9-3.4
		c0,0,4.1-1.9,5.1-6.2c1.1-4.3,5.2-6.4,6.2-6.1c0.9,0.3,2.3,2.1,3.7,1.8c1.4-0.2,1.3-1.5,1.3-1.5s1.9-0.5,2.8-0.8
		c0.8-0.3,0.6-1.6-0.4-3.2c-1-1.5-1.7-3.5-3.1-2.9c-1.4,0.6-3.6,1.1-5.3,1.1s-2.6,0.6-4.3,1.9c-1.7,1.3-6.5,4.2-9.6,7.6
		S3,40.2,1.4,41.2s-0.3,1.8,0.1,3.2S1.4,49.2,3.2,52c1.2,2.1,3,3.8,3.8,4.7c0-0.7,0.2-1,0.2-1c0,1.1,0.9,2.8,1.2,3.3
		c0.2,0.2,0.3,0.5,0.5,0.8c0.4-2.1,1.5-2.8,1.5-2.8c-0.7,1-0.9,2.4-0.8,3.8c0,0.5,0.2,1.7,0.6,3.2c0.2,0.6,0.3,1,0.4,1.3
		c0.2,0.5,0.4,0.9,0.6,1.4c1.2-2.2,2.9-2.7,2.9-2.7c-1.4,1-2.2,2.4-2.6,3.8c-0.1,0.6-0.3,1.8-0.2,3.3c0.1,1.5,0.4,2.9,0.6,3.3
		c0.4,1.1,0.9,2.3,1.7,3.5c3.1,4.1,7.5,15.2,8.1,16.7c-0.9-2.3-8.9-25.5,20.5-36.6c0,0,2.1,2.3,3.4,1c1.2-1,0.6-1.8,1.8-2.2
		c0.4-0.1,0.1-0.9,0.1-0.9s0.7,0,0.6-0.5c-0.1-0.3-0.1-1.6,0.5-1.6c0.6,0,1.3-0.1,1.4-0.5c0.1-0.4-0.5-2.9-0.8-4.1
		c-0.1-0.4,0-0.8,0.3-1.1l1.1-1.2c0.1-0.2,0.2-0.4,0.2-0.6l0.2-3.7C51.4,42.2,53,40,52.8,39.3z"/>
	<linearGradient id="SVGID_1_" gradientUnits="userSpaceOnUse" x1="21.1011" y1="52.2738" x2="21.3693" y2="47.9829">
		<stop  offset="0" style="stop-color:#FFFFFF;stop-opacity:0"/>
		<stop  offset="0.8324" style="stop-color:#555555"/>
	</linearGradient>
	<path class="st1" d="M13.7,50.9c0,0,3.5-3.8,8.3-2.9c4.8,0.9,6.6,3.8,6.6,3.8S21.3,58.2,13.7,50.9z"/>
	<linearGradient id="SVGID_2_" gradientUnits="userSpaceOnUse" x1="11.3832" y1="47.0601" x2="14.729" y2="43.7386">
		<stop  offset="0" style="stop-color:#FFFFFF;stop-opacity:0"/>
		<stop  offset="0.7081" style="stop-color:#555555"/>
	</linearGradient>
	<path class="st2" d="M13.2,49.3c0,0,0.8-2.7,3.8-3.3c0,0-3.1-2.8-6.7-2.5C10.3,43.6,6.2,46.1,13.2,49.3z"/>
	<polygon class="st0" points="250.3,56.5 91.2,56.5 92.2,58.1 250.3,58.1 	"/>
	<linearGradient id="SVGID_3_" gradientUnits="userSpaceOnUse" x1="42.6599" y1="45.9125" x2="38.123" y2="35.6449">
		<stop  offset="0" style="stop-color:#FFFFFF;stop-opacity:0"/>
		<stop  offset="1" style="stop-color:#555555"/>
	</linearGradient>
	<path class="st3" d="M33.3,49.3c0,0-0.5-3.7-1-6.7c-0.6-3,2.1-7.3,7.1-8.3c5-1.1,10.6,2.4,11,4.4C50.8,40.8,37.8,56.4,33.3,49.3z"
		/>
	<g class="st4">
		<path class="st0" d="M102.4,47.9h1.6v3.3c-0.4,0.3-1,0.6-1.6,0.8c-0.6,0.2-1.2,0.3-1.7,0.3c-0.8,0-1.6-0.2-2.3-0.6
			c-0.7-0.4-1.2-0.9-1.6-1.5c-0.4-0.6-0.6-1.4-0.6-2.2c0-0.8,0.2-1.5,0.6-2.2c0.4-0.6,0.9-1.1,1.6-1.5c0.7-0.4,1.4-0.5,2.4-0.5
			c0.6,0,1.2,0.1,1.8,0.3c0.6,0.2,1.1,0.5,1.5,0.9l-1,1.3c-0.3-0.3-0.7-0.5-1-0.7c-0.3-0.2-0.8-0.2-1.2-0.2c-0.5,0-0.9,0.1-1.3,0.3
			c-0.4,0.2-0.7,0.5-0.9,0.9s-0.3,0.8-0.3,1.3s0.1,0.9,0.3,1.3c0.2,0.4,0.5,0.7,0.9,0.9c0.4,0.2,0.8,0.3,1.3,0.3
			c0.2,0,0.5,0,0.8-0.1c0.3-0.1,0.6-0.2,0.8-0.3v-2.3H102.4z"/>
		<path class="st0" d="M118.9,43.8l-3.1,5.6v2.7H114v-2.7l-3.1-5.7h1.9l2.2,3.8l2.1-3.8h1.8V43.8z"/>
		<path class="st0" d="M125.9,43.8h2.1l2.6,5.1l2.6-5.1h2.1v8.4h-1.7v-5.6l-2.4,4.8h-1l-2.4-4.8v5.6h-1.7V43.8z"/>
		<path class="st0" d="M166.3,45.7c-0.4-0.2-0.8-0.3-1.1-0.3c-0.5,0-0.9,0.1-1.3,0.3s-0.7,0.5-0.9,0.9c-0.2,0.4-0.3,0.8-0.3,1.3
			s0.1,0.9,0.3,1.3c0.2,0.4,0.5,0.7,0.9,0.9c0.4,0.2,0.8,0.3,1.3,0.3c0.4,0,0.7-0.1,1.1-0.3s0.7-0.4,1-0.7l1.1,1.2
			c-0.4,0.5-0.9,0.8-1.5,1.1c-0.6,0.3-1.2,0.4-1.8,0.4c-0.8,0-1.5-0.2-2.3-0.6c-0.7-0.4-1.2-0.9-1.5-1.5c-0.4-0.6-0.6-1.4-0.6-2.3
			c0-0.8,0.2-1.5,0.6-2.2c0.4-0.6,0.9-1.1,1.6-1.5c0.7-0.4,1.4-0.5,2.3-0.5c0.6,0,1.2,0.1,1.7,0.4c0.6,0.2,1.1,0.6,1.5,1l-1.1,1.3
			C167,46.1,166.6,45.9,166.3,45.7z"/>
		<path class="st0" d="M175.6,43.8h6.4v1.5h-4.5v1.8h4v1.5h-4v1.8h4.6v1.5h-6.5V43.8z"/>
		<path class="st0" d="M195.5,43.8h1.7v8.4h-1.6l-4-5.3v5.3h-1.8v-8.4h1.7l4.1,5.4v-5.4H195.5z"/>
		<path class="st0" d="M204.6,43.8h7v1.6H209v6.8h-1.8v-6.8h-2.6V43.8z"/>
		<path class="st0" d="M218.7,43.8h6.4v1.5h-4.5v1.8h4v1.5h-4v1.8h4.6v1.5h-6.5V43.8z"/>
		<path class="st0" d="M238,52.1l-1.3-2.4h-0.2h-1.7v2.4h-1.8v-8.4h3.6c1.1,0,1.9,0.2,2.6,0.7c0.6,0.5,0.9,1.2,0.9,2.2
			c0,0.6-0.1,1.2-0.4,1.6s-0.6,0.8-1.1,1l1.7,2.8H238V52.1z M234.7,48.2h1.7c0.5,0,0.9-0.1,1.2-0.4c0.3-0.2,0.4-0.6,0.4-1
			c0-0.5-0.1-0.8-0.4-1c-0.3-0.2-0.7-0.3-1.2-0.3h-1.7V48.2z"/>
	</g>
</g>
</svg>
